<svg width="200" height="100" viewBox="0 0 200 100" fill="none" xmlns="http://www.w3.org/2000/svg">
<rect width="200" height="100" rx="20" fill="url(#paint0_linear_6056_1877)"/>
<path fill-rule="evenodd" clip-rule="evenodd" d="M47.7969 52.8956C55.0571 48.5726 57.4196 45.409 57.4196 41.3841C57.4196 37.3592 54.6096 33.5156 46.3562 33.5156C39.5798 33.5156 35.5137 36.3523 35.5137 42.5723H44.0974C44.0974 40.4637 45.0003 39.487 46.1836 39.487C47.1783 39.487 48.0732 40.0489 48.0732 41.5599C48.0732 46.1645 35.5083 54.1717 35.5083 54.1717L30.9274 46.1865L37.1755 34.2148H26.8303L21.7306 45.409V34.2011H12.1348V59.5675H21.7306V47.0107L27.4813 59.5675H57.4196V52.9601H47.7969V52.8956Z" fill="white"/>
<path fill-rule="evenodd" clip-rule="evenodd" d="M59.6777 58.86C62.4608 58.86 62.8408 58.61 62.8408 56.4093V37.8536C62.8408 35.5829 62.5605 35.37 59.6777 35.37V34.6982H70.0687V35.3521C67.2492 35.3521 66.9689 35.6378 66.9689 37.6544V56.5343C66.9689 58.6292 67.4218 58.8778 70.0687 58.8778V59.5867H59.6777V58.86Z" fill="white"/>
<path fill-rule="evenodd" clip-rule="evenodd" d="M71.2169 58.8597C73.4083 58.8597 73.756 58.6481 73.756 56.9763V44.6997C73.756 43.0005 73.4447 42.8576 71.2169 42.8576V42.1804C73.2722 42.1804 75.9515 42.1117 77.6227 42.0059V45.0912C78.4973 43.1035 80.4569 41.8452 82.5931 41.9002C86.4193 41.9002 87.8465 44.381 87.8465 47.149V56.9942C87.8465 58.6289 88.1942 58.8775 90.2818 58.8775V59.5864H81.8154V58.8597C83.7683 58.8597 84.0109 58.6481 84.0109 56.9763V46.8647C84.0109 44.9855 83.4192 43.3549 81.4677 43.3549C78.8922 43.3549 77.6051 45.8742 77.6051 48.568V57.1549C77.6051 58.6481 77.9892 58.8597 79.7965 58.8597V59.5685H71.2129L71.2169 58.8597Z" fill="white"/>
<path fill-rule="evenodd" clip-rule="evenodd" d="M91.4336 55.0284V43.0004H89.2422V42.2174L89.7975 42.1803C92.8972 41.9688 94.2207 38.4975 94.4646 35.5454C94.4646 35.3696 94.4956 35.1223 94.4956 34.9424H95.2962V42.1803H99.3622V43.0004H95.2962V55.152C95.2962 57.5656 95.8204 58.3761 97.0037 58.3761C98.3959 58.3761 98.7787 56.5655 98.7787 54.968V54.3512H99.5105V55.3086C99.5105 58.2181 98.2908 59.8857 95.404 59.8857C93.2085 59.8857 91.4336 58.4681 91.4336 55.0284Z" fill="white"/>
<path fill-rule="evenodd" clip-rule="evenodd" d="M111.596 49.691V48.7061C111.596 46.1497 111.04 42.4243 108.185 42.4243C105.158 42.4243 104.571 46.6099 104.53 49.2034V49.6993L111.596 49.691ZM100.162 50.768C100.162 45.4821 103.537 41.7979 108.203 41.7979C113.173 41.7979 115.824 45.5933 115.824 50.3133V50.5235H104.53V51.3395C104.53 54.8904 105.469 58.7903 109.405 58.7903C112.395 58.7903 114.28 56.4496 114.939 53.8258H115.67C114.975 57.5101 112.509 59.9635 108.637 59.9635C103.486 59.9635 100.18 56.488 100.18 50.7543L100.162 50.768Z" fill="white"/>
<path fill-rule="evenodd" clip-rule="evenodd" d="M134.242 58.8601C136.468 58.8601 136.785 58.6101 136.785 56.7652V44.843C136.785 43.0696 136.572 42.8581 134.242 42.8581V42.1808C136.351 42.2248 138.463 42.1547 140.565 41.9693V45.1645C141.212 43.1603 143.055 41.8113 145.125 41.8263C147.212 41.8263 148.535 43.1067 148.535 45.0917C148.535 46.7579 147.456 48.2498 145.753 48.2498C144.533 48.2498 143.769 47.5409 143.769 46.4406C143.769 44.7002 145.753 44.4557 145.753 43.7097C145.753 43.1768 145.161 42.9267 144.533 42.9267C142.373 42.9267 141.018 45.2702 140.598 46.8651V56.6952C140.598 58.7172 141.158 58.8601 143.246 58.8601V59.5689H134.211L134.242 58.8601Z" fill="white"/>
<path fill-rule="evenodd" clip-rule="evenodd" d="M150.83 36.8256C150.83 35.434 151.937 34.3076 153.302 34.3076C154.667 34.3076 155.773 35.434 155.773 36.8256C155.773 38.2171 154.667 39.3435 153.302 39.3435C151.937 39.3435 150.83 38.2171 150.83 36.8256ZM149.127 58.8595C151.562 58.8595 151.702 58.6479 151.702 56.7646V45.3768C151.702 43.0333 151.422 42.8574 149.127 42.8574V42.1802C151.271 42.2159 153.415 42.0634 155.533 41.72V56.6945C155.533 58.6479 155.809 58.8595 158.213 58.8595V59.5683H149.127V58.8595Z" fill="white"/>
<path fill-rule="evenodd" clip-rule="evenodd" d="M159.424 55.0284V43.0004H157.232V42.2174L157.788 42.1803C160.887 41.9688 162.211 38.4975 162.455 35.5454C162.455 35.3696 162.49 35.1223 162.49 34.9424H163.29V42.1803H167.357V43.0004H163.29V55.152C163.29 57.5656 163.811 58.3761 164.994 58.3761C166.39 58.3761 166.769 56.5655 166.769 54.968V54.3512H167.501V55.3086C167.501 58.2181 166.281 59.8857 163.394 59.8857C161.199 59.8857 159.424 58.4681 159.424 55.0284Z" fill="white"/>
<path fill-rule="evenodd" clip-rule="evenodd" d="M168.261 63.7911C168.177 62.4655 169.164 61.3226 170.463 61.2388C170.541 61.2333 170.621 61.2333 170.7 61.236C171.847 61.236 172.786 61.9435 172.786 63.188C172.786 65.0288 170.835 64.923 170.835 65.7431C170.835 66.3791 171.64 66.6264 172.335 66.6264C175.118 66.6264 177.034 62.3734 177.797 59.6741C177.07 57.9337 174.77 52.7892 171.603 45.7683C170.487 43.3191 169.932 42.8575 168.505 42.8575V42.1816H177.59V42.8575C174.878 42.8575 174.838 43.3548 175.813 45.5884C176.997 48.425 178.842 52.6148 179.785 54.7426C180.305 53.3607 181.873 49.1709 182.812 46.5829C184.032 43.2449 183.579 42.8575 180.513 42.8575V42.1816H187.338V42.8575C185.455 42.8575 185.039 43.1061 183.928 46.017C182.08 50.8372 180.2 55.7372 178.322 60.5629C177.277 63.2567 175.71 67.3365 172.195 67.3365C170.072 67.3365 168.261 66.0604 168.261 63.7911Z" fill="white"/>
<path fill-rule="evenodd" clip-rule="evenodd" d="M124.864 66.701C122.044 66.701 119.121 65.8809 119.121 62.7599C119.155 61.4769 119.943 60.3436 121.118 59.8862C122.198 60.0661 123.829 60.2076 125.365 60.3464C127.28 60.5263 129.232 60.8437 130.136 61.3038C130.782 61.6596 131.163 62.3684 131.112 63.1144C131.098 65.4949 127.651 66.701 124.864 66.701ZM124.24 42.3978C126.883 42.3978 127.339 45.6576 127.339 48.214C127.339 50.5891 126.919 53.8914 124.24 53.8914C121.562 53.8914 121.244 50.5891 121.244 48.1069C121.244 45.626 121.629 42.3978 124.24 42.3978ZM125.352 56.9438C122.044 56.658 119.676 56.3407 119.676 55.2033C119.676 54.5316 120.269 54.103 120.897 53.853C121.969 54.3118 123.12 54.5426 124.28 54.5316C127.831 54.5316 131.486 52.118 131.486 48.1439C131.486 46.0161 130.724 44.207 129.191 43.1396L128.825 42.891H132.358V42.1121H130.1C128.769 42.1382 127.439 42.0832 126.116 41.9459C125.926 41.9143 125.734 41.8827 125.546 41.8593C125.502 41.8552 125.458 41.8552 125.415 41.8593C125.036 41.8099 124.655 41.7852 124.272 41.7852C120.657 41.7852 117.139 44.0559 117.139 48.1714C117.04 50.4916 118.335 52.64 120.408 53.6016C119.121 54.0233 117.102 54.8764 117.139 56.8655C117.139 58.4589 118.878 59.3463 120.342 59.7021C118.841 60.2365 116.547 61.5126 116.547 63.3575C116.547 66.5815 120.965 67.3632 124.516 67.3632C129.078 67.3632 133.709 65.6653 133.709 61.8382C133.709 58.6485 131.166 57.4561 125.352 56.9438Z" fill="white"/>
<defs>
<linearGradient id="paint0_linear_6056_1877" x1="100" y1="0" x2="100" y2="100" gradientUnits="userSpaceOnUse">
<stop stop-color="#743CFE"/>
<stop offset="1" stop-color="#80F5A7"/>
</linearGradient>
</defs>
</svg>
