<svg width="200" height="100" viewBox="0 0 200 100" fill="none" xmlns="http://www.w3.org/2000/svg">
<rect width="200" height="100" rx="20" fill="url(#paint0_linear_6056_1895)"/>
<path fill-rule="evenodd" clip-rule="evenodd" d="M155.134 38.1089V35.6084L159.306 38.1089V59.7797H155.134V38.1089ZM91.6252 57.0995L89.6066 53.9335C88.2607 55.1396 87.0318 55.8633 85.2472 55.8633C82.2921 55.8633 80.2441 53.3907 80.2441 49.1995V48.898C80.2441 44.7972 82.3215 42.2945 85.2179 42.2945C86.8565 42.2945 88.173 43.0182 89.4895 44.164L91.4788 40.6361C89.9283 39.1887 88.1437 38.2238 85.1302 38.2238C79.7467 38.2238 75.8555 42.5357 75.8555 48.9583V49.2297C75.8555 55.6824 79.7467 59.9338 84.9252 59.9338C87.9973 59.9338 89.8989 58.8786 91.6252 57.0995ZM128.706 38.2238V42.4578H124.018V38.2238H128.706ZM128.706 44.0688V59.9338H124.018V44.0688H128.706ZM105.69 59.9338V49.6124C105.69 45.3478 103.579 42.9064 99.1138 42.9064C96.7611 42.9064 95.2527 43.3391 93.6841 44.0498L94.4987 47.6037C95.7956 47.0783 96.912 46.7384 98.42 46.7384C100.471 46.7384 101.527 47.7582 101.527 49.6433V50.1068C100.532 49.7051 99.5059 49.4578 98.1183 49.4578C94.8 49.4578 92.4774 51.0957 92.4774 54.7422V54.9586C92.4774 58.1416 94.6191 59.9338 97.304 59.9338C99.2045 59.9338 100.596 59.1615 101.561 57.8944V59.9338H105.69ZM101.557 54.2478C101.557 55.762 100.381 56.7818 98.6917 56.7818C97.485 56.7818 96.6102 56.102 96.6102 54.7422V54.5259C96.6102 53.0426 97.6058 52.3009 99.1744 52.3009C100.079 52.3009 100.954 52.5172 101.557 52.8263V54.2478ZM153.853 59.9338V49.6124C153.853 45.3478 151.673 42.9064 147.064 42.9064C144.635 42.9064 143.078 43.3391 141.459 44.0498L142.3 47.6037C143.639 47.0783 144.791 46.7384 146.348 46.7384C148.465 46.7384 149.555 47.7582 149.555 49.6433V50.1068C148.528 49.7051 147.469 49.4578 146.037 49.4578C142.611 49.4578 140.214 51.0957 140.214 54.7422V54.9586C140.214 58.1416 142.424 59.9338 145.196 59.9338C147.158 59.9338 148.594 59.1615 149.59 57.8944V59.9338H153.853ZM149.587 54.2478C149.587 55.762 148.372 56.7818 146.628 56.7818C145.383 56.7818 144.48 56.102 144.48 54.7422V54.5259C144.48 53.0426 145.507 52.3009 147.127 52.3009C148.061 52.3009 148.964 52.5172 149.587 52.8263V54.2478ZM166.266 42.4578V38.2238H161.578V42.4578H166.266ZM166.266 59.9338V44.0688H161.578V59.9338H166.266ZM175.541 49.7605C177.821 50.9284 179.883 52.0656 179.883 54.8318C179.883 58.2128 177.322 59.9338 174.01 59.9338C172.042 59.9338 169.824 59.3194 167.949 57.9669L169.386 54.7397C171.011 55.8461 172.635 56.4301 174.01 56.4301C175.197 56.4301 175.822 55.9383 175.822 55.1392C175.822 54.3649 174.963 53.9807 173.633 53.3861C173.379 53.2726 173.108 53.1515 172.823 53.0184C170.667 52.0349 168.48 50.8055 168.48 47.8856C168.48 44.7198 170.98 42.9064 174.198 42.9064C175.978 42.9064 177.852 43.4289 179.415 44.3817L178.134 47.7012C176.728 46.9021 175.322 46.4103 174.198 46.4103C173.135 46.4103 172.573 46.8713 172.573 47.5783C172.573 48.2718 173.402 48.6863 174.714 49.3421C174.972 49.4709 175.248 49.6091 175.541 49.7605ZM184.44 39.3593L182.353 38.109V40.6093V43.9608H180.728V47.3048H182.353V55.5643C182.353 58.8594 184.058 59.7797 186.526 59.7797C187.82 59.7797 188.873 59.4828 189.686 59.0078V55.6236C189.144 55.9205 188.512 56.0689 187.85 56.0689C186.947 56.0689 186.526 55.6236 186.526 54.7034V47.3048H189.029V43.9608H186.526V40.6095L184.44 39.3593ZM139.361 55.6887V59.1454C138.51 59.6305 137.407 59.9338 136.053 59.9338C133.469 59.9338 131.685 58.9939 131.685 55.628V47.1914H129.984V43.7757H131.685V40.3523H131.689V38.2238L133.82 39.288L135.951 40.3523H136.053V43.7757H138.719V47.1914H136.053V54.7487C136.053 55.6887 136.494 56.1436 137.439 56.1436C138.132 56.1436 138.794 55.9919 139.361 55.6887ZM122.589 51.66V51.1817C122.589 45.7107 119.597 43.1098 116.331 43.1098C114.163 43.1098 112.687 44.2758 111.741 45.6211V43.1098H107.568V63.1138H107.568L111.74 65.6143V63.6046L111.741 57.4C112.687 58.5659 114.133 59.732 116.331 59.732C119.628 59.732 122.589 57.1309 122.589 51.66ZM118.417 51.6002C118.417 54.3506 116.849 56.0248 115.048 56.0248C113.277 56.0248 111.71 54.3207 111.71 51.6002V51.2414C111.71 48.5209 113.277 46.8169 115.048 46.8169C116.849 46.8169 118.417 48.5209 118.417 51.2414V51.6002Z" fill="white"/>
<path opacity="0.3" d="M36.5362 80C52.8486 80 66.0724 66.7924 66.0724 50.5C66.0724 34.2076 52.8486 21 36.5362 21C20.2238 21 7 34.2076 7 50.5C7 66.7924 20.2238 80 36.5362 80Z" fill="#EBEDF1"/>
<path d="M44.851 31.0283H28.2227L29.4624 41.1485H43.5961L44.851 31.0283Z" fill="white"/>
<path d="M43.3276 43.3125H29.7383L30.3067 47.851C30.5703 48.0061 30.7445 48.1518 31.02 48.2876C32.7289 49.1297 34.6104 49.5694 36.5183 49.5723C38.4263 49.5753 40.3092 49.1415 42.0206 48.3047C42.3048 48.1658 42.4823 48.0164 42.7539 47.857L43.3276 43.3125Z" fill="white"/>
<path d="M46.3982 47.021C45.2382 48.524 43.7442 49.7413 42.0328 50.5781C40.3213 51.4149 38.4384 51.8486 36.5304 51.8457C34.6225 51.8427 32.741 51.4031 31.0321 50.5609C29.3233 49.7188 27.8333 48.4969 26.6779 46.9902L24.6836 48.4963C26.0724 50.3073 27.8635 51.776 29.9175 52.7883C31.9715 53.8005 34.2331 54.329 36.5265 54.3325C38.8199 54.3361 41.0832 53.8147 43.1403 52.8089C45.1975 51.8031 46.9934 50.3399 48.3878 48.5332L46.3982 47.021Z" fill="white"/>
<path fill-rule="evenodd" clip-rule="evenodd" d="M35.4376 59.778C35.1199 61.5146 33.5884 62.8314 31.7471 62.8314C29.6755 62.8314 27.9961 61.1647 27.9961 59.1091C27.9961 57.0532 29.6755 55.3867 31.7471 55.3867C33.4371 55.3867 34.866 56.4958 35.3351 58.0205C35.4848 57.9394 35.6416 57.8732 35.8034 57.8225C36.0545 57.7437 36.3174 57.7025 36.5835 57.7014C36.8495 57.7002 37.1128 57.7391 37.3647 57.8156C37.5331 57.8668 37.6965 57.9348 37.8521 58.0189C38.3217 56.495 39.7503 55.3867 41.4396 55.3867C43.5112 55.3867 45.1908 57.0532 45.1908 59.1091C45.1908 61.1647 43.5112 62.8314 41.4396 62.8314C39.5939 62.8314 38.0595 61.5082 37.7469 59.7656C37.6434 59.5499 37.4805 59.3677 37.277 59.2399C37.0714 59.111 36.8328 59.043 36.5895 59.0441C36.3462 59.0452 36.1082 59.1151 35.9037 59.2463C35.7007 59.3759 35.539 59.5605 35.4376 59.778ZM31.7471 60.8972C32.7422 60.8972 33.5489 60.0963 33.5489 59.1091C33.5489 58.1215 32.7422 57.321 31.7471 57.321C30.752 57.321 29.9453 58.1215 29.9453 59.1091C29.9453 60.0963 30.752 60.8972 31.7471 60.8972ZM41.4396 60.8972C42.4347 60.8972 43.2414 60.0963 43.2414 59.1091C43.2414 58.1215 42.4347 57.321 41.4396 57.321C40.4445 57.321 39.6378 58.1215 39.6378 59.1091C39.6378 60.0963 40.4445 60.8972 41.4396 60.8972Z" fill="white"/>
<path d="M32.1432 68.7261C33.6445 68.7261 35.9523 67.7505 36.6526 66.7411C37.3529 67.7505 39.6607 68.7261 41.162 68.7261C42.7009 68.7261 43.6944 68.4153 44.7404 67.6088C45.4124 67.0917 46.2232 65.9057 46.2232 64.7456C46.067 64.8531 45.9241 64.9557 45.7886 65.053C45.0369 65.5934 44.5276 65.9598 43.3315 65.9598C41.7275 65.9598 40.7038 65.0181 39.851 64.2338C39.2423 63.6739 38.7208 63.1943 38.1376 63.1943C37.5903 63.1943 37.265 63.5288 36.9631 63.8396C36.8595 63.9459 36.7587 64.05 36.6526 64.1365C36.5465 64.05 36.4457 63.9459 36.3421 63.8396C36.0402 63.5288 35.7149 63.1943 35.1676 63.1943C34.5844 63.1943 34.0628 63.6739 33.4542 64.2338C32.6014 65.0181 31.5777 65.9598 29.9737 65.9598C28.7776 65.9598 28.2682 65.5934 27.5165 65.053C27.3813 64.9557 27.2383 64.8531 27.082 64.7456C27.082 65.9057 27.893 67.0917 28.5647 67.6088C29.6108 68.4153 30.6043 68.7261 32.1432 68.7261Z" fill="white"/>
<defs>
<linearGradient id="paint0_linear_6056_1895" x1="100" y1="0" x2="100" y2="100" gradientUnits="userSpaceOnUse">
<stop stop-color="#743CFE"/>
<stop offset="1" stop-color="#80F5A7"/>
</linearGradient>
</defs>
</svg>
