<svg width="200" height="100" viewBox="0 0 200 100" fill="none" xmlns="http://www.w3.org/2000/svg">
<rect width="200" height="100" rx="20" fill="url(#paint0_linear_6056_1836)"/>
<path fill-rule="evenodd" clip-rule="evenodd" d="M161.439 34.4926C162.598 34.3477 163.468 35.0723 163.323 36.0868C162.018 45.3621 160.569 54.7824 159.265 63.9129C159.12 64.6375 158.395 65.2172 157.381 65.2172C135.497 64.3477 113.468 63.9129 91.4387 64.0578C90.4242 64.0578 89.6995 63.3332 89.8445 62.4636C90.1343 61.3042 90.2793 60.2897 90.5691 59.1303C90.5691 58.9853 90.714 58.9853 90.714 58.9853C91.4387 58.8404 92.0184 58.6955 92.1633 58.5506C92.1633 58.5506 91.5836 58.6955 90.714 58.6955C73.0329 60.4346 55.4966 62.6085 37.9604 65.2172C36.801 65.3621 35.9314 64.6375 36.0763 63.623C37.3807 54.2027 38.83 44.9274 40.1343 35.652C40.2792 34.9274 41.0039 34.3477 42.0184 34.3477C61.0039 35.2172 80.1343 35.5071 99.1198 35.652C100.134 35.652 100.859 36.3766 100.714 37.2462C100.424 38.5506 100.134 39.9998 99.8445 41.3042C120.424 39.565 141.004 37.3911 161.439 34.4926ZM107.96 44.4926C104.917 44.7824 101.873 45.0723 98.83 45.3621C98.685 45.3621 98.685 45.3621 98.685 45.5071C97.5256 50.5795 96.5111 55.5071 95.3517 60.5795C95.3517 60.7245 95.4966 60.7245 95.4966 60.7245H96.801C96.9459 60.7245 97.0908 60.7245 97.2358 60.7245H98.2503C98.83 60.7245 99.2648 60.7245 99.8445 60.7245H100.424C100.714 60.7245 101.149 60.7245 101.439 60.7245H102.163C102.308 60.7245 102.453 60.7245 102.598 60.7245H104.047C104.337 60.7245 104.772 60.7245 105.207 60.7245C105.207 60.7245 105.352 60.7245 105.352 60.5795C105.497 59.8549 105.497 59.71 105.786 58.2607C105.786 58.1158 105.786 58.1158 105.642 58.1158C103.902 58.1158 101.584 58.1158 99.6995 58.2607C99.6995 58.1158 99.6995 57.9708 99.6995 57.9708C99.9894 56.6665 100.134 55.7969 100.424 54.4926C100.134 54.4926 99.8445 54.4926 99.8445 54.3477V54.2027C100.279 54.2027 103.178 54.0578 104.192 54.0578C104.337 54.0578 104.337 54.0578 104.337 53.9129C104.482 53.1882 104.627 52.3187 104.917 51.594C104.917 51.4491 104.917 51.4491 104.772 51.4491C103.613 51.4491 102.453 51.594 101.294 51.594C101.149 51.594 101.149 51.4491 101.149 51.4491C101.439 50.2897 101.584 49.4201 101.873 48.2607C101.584 48.2607 101.439 48.2607 101.294 48.1158V47.9708C101.873 47.9708 106.076 47.681 107.526 47.5361C107.671 47.5361 107.671 47.5361 107.671 47.3911C107.815 46.6665 107.96 45.3621 108.25 44.6375C108.25 44.6375 108.105 44.4926 107.96 44.4926ZM145.642 40.8694C144.627 41.0143 143.468 41.0143 142.453 41.1593C142.453 41.1593 142.308 41.1593 142.308 41.3042C141.584 44.9274 141.004 48.5506 140.279 52.1737C140.279 52.3187 139.989 52.3187 139.989 52.1737C139.844 51.4491 139.7 50.7245 139.41 49.8549C138.83 47.1013 138.105 44.4926 137.381 41.8839C137.381 41.739 137.236 41.739 137.236 41.739C136.946 41.739 136.511 41.739 136.076 41.8839L134.917 42.0288C134.482 42.0288 134.192 42.0288 133.758 42.1737C133.758 42.1737 133.613 42.1737 133.613 42.3187C132.163 50.7245 131.873 52.8984 131.584 54.6375V55.0723V55.2172V55.5071C131.439 56.6665 131.149 57.9708 130.714 60.8694C130.714 60.8694 130.714 61.0143 130.859 61.0143C131.149 61.0143 131.294 61.0143 131.439 61.0143H132.018H132.163H133.323C133.468 61.0143 133.613 61.0143 133.902 61.0143C133.902 61.0143 134.047 61.0143 134.047 60.8694C134.772 57.3911 135.352 54.0578 136.076 50.5795C136.076 50.4346 136.366 50.4346 136.366 50.5795C136.511 51.3042 136.801 52.1737 136.946 52.8984C137.671 55.652 138.83 58.1158 139.555 60.8694C139.555 60.8694 139.555 61.0143 139.7 61.0143C139.989 61.0143 140.134 61.0143 140.279 61.0143H141.729C141.873 61.0143 142.018 61.0143 142.163 61.0143C142.163 61.0143 142.308 61.0143 142.308 60.8694C143.468 53.9129 143.902 51.4491 144.337 49.2752L144.482 48.6955C144.772 46.8114 145.062 44.9274 145.642 40.8694ZM121.294 43.1882C120.279 43.3332 119.265 43.3332 118.25 43.4781C118.105 43.4781 117.96 43.623 117.96 43.623C116.366 47.3911 114.917 51.0143 113.468 54.6375C113.323 54.7824 113.178 54.7824 113.178 54.6375C113.178 51.1593 113.033 47.5361 113.033 44.0578C113.033 43.9129 112.888 43.9129 112.743 43.9129C111.584 44.0578 110.714 44.0578 109.555 44.2027C109.555 44.2027 109.41 44.2027 109.41 44.3477C109.555 49.4201 109.844 54.4926 110.134 60.5795C110.134 60.5795 110.134 60.7245 110.279 60.7245C111.439 60.7245 112.453 60.7245 113.613 60.7245C113.613 60.7245 113.758 60.7245 113.758 60.5795C116.366 55.0723 118.975 49.4201 121.584 43.3332C121.584 43.3332 121.439 43.1882 121.294 43.1882ZM158.395 39.565L147.671 40.5795C147.671 40.5795 147.526 40.5795 147.526 40.7245C147.381 41.739 147.091 42.6085 146.946 43.7679C146.946 43.9129 146.946 43.9129 147.091 43.9129L150.424 43.623C150.569 43.623 150.569 43.623 150.569 43.7679C149.555 49.4201 148.685 55.2172 147.671 60.7245C147.671 60.7245 147.671 60.8694 147.815 60.8694C148.975 60.8694 150.134 60.8694 151.294 60.8694C151.294 60.8694 151.439 60.8694 151.439 60.7245C152.453 55.0723 153.323 49.2752 154.337 43.4781C154.047 43.4781 153.613 43.4781 153.468 43.3332V43.1882C153.758 43.1882 154.627 43.0433 155.497 43.0433H156.221C156.946 43.0433 157.526 42.8984 157.96 42.8984C157.96 42.8984 158.105 42.8984 158.105 42.7535C158.105 41.594 158.25 40.8694 158.395 39.565ZM131.873 42.1737L122.888 43.0433C122.888 43.0433 122.743 43.0433 122.743 43.1882C121.729 49.1303 120.569 54.7824 119.555 60.5795C119.555 60.7245 119.7 60.7245 119.7 60.7245H128.685C128.685 60.7245 128.83 60.7245 128.83 60.5795C128.975 59.71 129.12 58.8404 129.265 57.8259C129.265 57.681 129.265 57.681 129.12 57.681C127.381 57.681 125.642 57.8259 123.902 57.8259C123.758 57.8259 123.758 57.681 123.758 57.681C124.047 56.2317 124.192 54.7824 124.482 53.3332C124.192 53.3332 123.902 53.3332 123.758 53.1882V53.0433C124.047 53.0433 124.917 53.0433 125.931 52.8984H126.656C127.381 52.8984 127.96 52.8984 128.25 52.7535C128.395 52.7535 128.395 52.7535 128.395 52.6085C128.54 51.8839 128.685 51.0143 128.83 50.2897C128.83 50.1448 128.83 50.1448 128.685 50.1448L125.207 50.4346C125.062 50.4346 125.062 50.2897 125.062 50.2897C125.352 48.9853 125.642 47.5361 125.786 46.0868C125.497 46.0868 125.207 46.0868 125.062 45.9419V45.7969C125.642 45.7969 129.7 45.3621 131.439 45.2172C131.584 45.2172 131.584 45.2172 131.584 45.0723C131.729 44.2027 131.873 43.3332 132.018 42.4636C132.018 42.1737 131.873 42.1737 131.873 42.1737ZM61.2937 39.1303C59.8445 39.1303 58.2503 39.1303 56.801 39.1303C56.801 39.1303 56.6561 39.1303 56.6561 39.2752C56.2213 40.5795 55.3517 42.7535 54.6271 44.9274L54.3372 45.7969C53.1778 48.8404 52.1633 51.8839 52.0184 52.4636C52.0184 51.3042 51.8735 42.6085 51.7285 39.2752C51.7285 39.1303 51.5836 39.1303 51.5836 39.1303C49.9894 39.1303 48.5401 39.1303 46.9459 39.1303C46.801 39.1303 46.801 39.1303 46.801 39.2752C45.6416 45.652 44.4821 52.8984 43.3227 59.4201C43.3227 59.565 43.4677 59.565 43.4677 59.565L46.3662 59.2752C46.5111 59.2752 46.5111 59.2752 46.5111 59.1303C47.0908 56.2317 47.8155 51.8839 48.3952 49.1303L48.5401 48.4056C48.685 47.8259 48.83 47.2462 48.83 46.9564C48.83 46.8114 48.9749 46.8114 48.9749 46.9564C48.9749 49.2752 48.9749 56.0868 49.1198 58.8404C49.1198 58.9853 49.2648 58.9853 49.2648 58.9853C50.1343 58.8404 50.859 58.8404 51.7285 58.6955C51.7285 58.6955 51.8735 58.6955 51.8735 58.5506C52.8879 55.7969 55.6416 49.2752 56.5111 46.9564C56.5111 46.8114 56.801 46.9564 56.6561 46.9564C56.2213 48.9853 55.3517 54.4926 54.6271 58.1158C54.6271 58.2607 54.772 58.2607 54.772 58.2607C55.7865 58.1158 56.801 58.1158 57.8155 57.9708C57.9604 57.9708 57.9604 57.9708 57.9604 57.8259C59.1198 51.594 59.9894 45.0723 61.1488 39.1303C61.4387 39.1303 61.4387 39.1303 61.2937 39.1303ZM71.4387 39.1303C70.1343 39.1303 68.9749 39.1303 67.6706 39.1303C67.6706 39.1303 67.5256 39.1303 67.5256 39.2752C65.0619 45.0723 62.5981 51.594 60.1343 57.8259C60.1343 57.9708 60.1343 58.1158 60.2792 58.1158C61.2937 57.9708 62.3082 57.8259 63.3227 57.8259C63.3227 57.8259 63.4677 57.8259 63.4677 57.681C63.9024 56.5216 64.4821 55.2172 64.9169 54.0578C64.6271 54.0578 64.3372 54.0578 64.3372 53.9129C64.4821 53.9129 65.2068 53.9129 66.0763 53.7679H66.6561C67.3807 53.7679 67.9604 53.623 68.2503 53.623C68.3952 53.623 68.3952 53.7679 68.3952 53.7679C68.3952 54.7824 68.3952 56.0868 68.3952 57.1013H68.5401C69.6995 56.9564 70.5691 56.9564 71.8735 56.8114C72.0184 56.8114 72.1633 56.6665 72.1633 56.6665C72.0184 50.8694 71.8735 45.0723 71.7285 39.2752C71.7285 39.1303 71.5836 39.1303 71.4387 39.1303ZM76.9459 39.1303C76.801 39.1303 76.801 39.1303 76.801 39.2752C75.9314 44.3477 75.6416 45.652 75.4966 46.6665V46.9564C75.2068 48.1158 75.0619 49.565 73.7575 56.3766C73.7575 56.5216 73.7575 56.6665 73.9024 56.5216C75.7865 56.3766 75.2068 56.3766 77.3807 56.2317C77.5256 56.2317 77.5256 56.2317 77.5256 56.0868C79.6995 43.9129 78.9749 48.4056 80.4242 39.2752C80.4242 39.1303 80.4242 39.1303 80.2792 39.1303C79.1198 39.1303 78.1053 39.1303 76.9459 39.1303ZM94.9169 39.1303H92.0184C91.8735 39.1303 91.8735 39.1303 91.8735 39.2752C91.2937 42.1737 90.5691 45.0723 89.9894 47.9708C89.9894 48.1158 89.6995 48.1158 89.6995 47.9708C89.5546 47.3911 87.8155 41.594 87.0908 39.2752C87.0908 39.1303 86.9459 39.1303 86.9459 39.1303C85.9314 39.1303 84.6271 39.1303 83.6126 39.1303C83.4677 39.1303 83.4677 39.1303 83.4677 39.2752C82.8879 42.4636 82.743 43.9129 82.4532 45.0723V45.3621V45.652C82.1633 47.3911 81.7285 49.2752 80.714 55.652C80.714 55.7969 80.714 55.9419 80.859 55.7969C83.1778 55.5071 82.3082 55.652 83.9024 55.5071C84.0474 55.5071 84.0474 55.5071 84.0474 55.3621C84.6271 52.3187 85.3517 49.2752 85.9314 46.3766C85.9314 46.2317 86.2213 46.2317 86.2213 46.3766C86.3662 46.9564 86.6561 47.681 86.801 48.2607C86.9459 48.8404 87.2358 49.565 87.5256 50.4346L87.8155 51.1593C88.3952 52.8984 88.9749 54.4926 89.1198 54.9274C89.1198 55.0723 89.2648 55.0723 89.2648 55.0723L91.8735 54.9274C92.0184 54.9274 92.0184 54.9274 92.0184 54.7824C92.3082 53.623 94.3372 44.2027 95.4966 39.2752C95.0619 39.1303 95.0619 39.1303 94.9169 39.1303ZM68.685 44.9274C68.685 46.8114 68.5401 48.6955 68.5401 50.5795C68.5401 50.7245 68.3952 50.7245 68.3952 50.7245C67.6706 50.7245 67.0908 50.8694 66.3662 50.8694C66.2213 50.8694 66.2213 50.7245 66.2213 50.5795C66.9459 48.5506 67.6706 46.6665 68.3952 44.7824C68.3952 44.6375 68.685 44.7824 68.685 44.9274Z" fill="white"/>
<path fill-rule="evenodd" clip-rule="evenodd" d="M37.3809 35.0726L40.4244 35.2175C40.7142 34.7827 41.2939 34.4929 42.0186 34.4929H42.1635L42.4533 32.7537L36.0765 32.4639C35.3519 32.4639 34.7722 32.8986 34.7722 33.6233L32.0186 63.9131C31.8736 64.7827 32.5983 65.3624 33.4678 65.3624L35.062 65.2175L35.9316 36.5218C35.9316 35.5073 36.6562 35.0726 37.3809 35.0726Z" fill="white"/>
<path fill-rule="evenodd" clip-rule="evenodd" d="M96.0271 35.6522L43.9981 30C43.2735 30 42.6938 30.4348 42.6938 31.0145L42.5488 32.6087L92.9836 35.5072C93.9981 35.6522 95.0126 35.6522 96.0271 35.6522Z" fill="white"/>
<path fill-rule="evenodd" clip-rule="evenodd" d="M42.4539 32.7539L42.1641 34.493C59.1206 35.2177 75.9322 35.6525 92.8887 35.6525L42.4539 32.7539Z" fill="white"/>
<path fill-rule="evenodd" clip-rule="evenodd" d="M92.164 58.5508C92.164 58.5508 91.5842 58.6957 90.7147 58.6957C73.0335 60.4348 55.4973 62.6088 37.9611 65.2174C37.3813 65.3624 36.8016 65.0725 36.5118 64.7827L35.0625 64.9276V67.1015C35.0625 67.2464 35.0625 67.5363 35.2074 67.6812C35.4973 68.116 35.9321 68.4059 36.5118 68.4059L89.99 59.1305C90.5697 58.9856 91.1495 58.8406 91.5842 58.6957C91.8741 58.6957 92.019 58.5508 92.164 58.5508Z" fill="white"/>
<path fill-rule="evenodd" clip-rule="evenodd" d="M36.0766 63.7679C37.3809 54.3476 38.8302 45.0723 40.1346 35.7969C40.1346 35.652 40.2795 35.3621 40.4244 35.2172L37.3809 35.0723C36.6563 35.0723 36.0766 35.652 36.0766 36.3766L35.207 65.0723L36.6563 64.9273C36.2215 64.4926 36.0766 64.2027 36.0766 63.7679Z" fill="white"/>
<path fill-rule="evenodd" clip-rule="evenodd" d="M166.33 35.0851L164.735 35.23L163.866 63.9256C163.866 64.6503 163.286 65.23 162.562 65.23L158.504 64.9401C158.214 65.0851 157.924 65.23 157.634 65.23L157.489 65.6648L157.199 67.5488L163.576 67.8387C164.301 67.8387 164.88 67.4039 164.88 66.6793L167.634 36.3894C167.779 35.6648 167.054 34.9401 166.33 35.0851Z" fill="white"/>
<path fill-rule="evenodd" clip-rule="evenodd" d="M157.235 67.5359L101.148 64.0576C99.554 64.0576 97.8149 64.0576 96.2207 64.0576L155.351 70.1446C156.221 70.1446 156.945 69.7098 156.945 69.1301L157.235 67.5359Z" fill="white"/>
<path fill-rule="evenodd" clip-rule="evenodd" d="M157.38 65.217C138.685 64.4924 119.989 64.0576 101.148 64.0576L157.235 67.5359L157.525 65.6518L157.67 65.217C157.525 65.217 157.525 65.217 157.38 65.217Z" fill="white"/>
<path fill-rule="evenodd" clip-rule="evenodd" d="M163.323 35.3624L164.772 35.2175V33.0436C164.772 32.8987 164.772 32.6088 164.627 32.4639C164.337 32.0291 163.902 31.7393 163.323 31.7393L101.004 41.1595C121.149 39.2755 141.294 37.2465 161.439 34.348C162.308 34.348 163.033 34.7827 163.323 35.3624Z" fill="white"/>
<path fill-rule="evenodd" clip-rule="evenodd" d="M163.324 35.9418C162.019 45.3621 160.57 54.7824 159.266 63.9128C159.266 64.3476 158.976 64.7824 158.541 64.9273L162.454 65.0723C163.179 65.0723 163.758 64.4926 163.758 63.7679L164.628 35.0723L163.179 35.2172C163.324 35.652 163.324 35.7969 163.324 35.9418Z" fill="white"/>
<defs>
<linearGradient id="paint0_linear_6056_1836" x1="100" y1="0" x2="100" y2="100" gradientUnits="userSpaceOnUse">
<stop stop-color="#743CFE"/>
<stop offset="1" stop-color="#80F5A7"/>
</linearGradient>
</defs>
</svg>
