<svg width="200" height="100" viewBox="0 0 200 100" fill="none" xmlns="http://www.w3.org/2000/svg">
<rect width="200" height="100" rx="20" fill="url(#paint0_linear_6056_1920)"/>
<g clip-path="url(#clip0_6056_1920)">
<path d="M27.2251 72.3698C27.7769 72.471 28.3287 72.5578 28.8947 72.6156C30.7624 72.8035 32.5594 72.7024 34.229 72.3554C37.5117 71.7049 40.2708 70.1292 41.9546 67.9898C46.3267 63.5665 42.1668 53.7221 42.1668 53.7221C40.7236 49.6457 38.7286 47.0581 37.6956 45.9017C37.2853 45.4535 36.7617 45.1211 36.1816 44.9476L28.4561 42.6781C27.7062 42.4612 26.9139 42.5191 26.2063 42.8227C19.6552 45.7138 17.1649 54.8931 16.3584 59.0129C16.2452 59.5911 16.1603 60.0826 16.1179 60.4296C16.0896 60.5596 16.0754 60.6898 16.0613 60.8198C16.0471 60.9644 16.033 61.0367 16.033 61.0367C15.9339 62.092 16.0613 63.1472 16.3725 64.1446C17.6035 68.0766 21.82 71.3435 27.2251 72.3698ZM26.4611 59.8802C27.126 59.7935 27.7486 60.126 28.159 60.6608C28.5551 61.1813 29.1777 61.4559 30.0267 61.5137C31.0172 61.5715 31.5406 61.3258 31.569 60.7765C31.5831 60.4874 31.4841 60.256 31.2577 60.0682C31.0313 59.8947 30.6351 59.7212 30.0549 59.5623C27.7628 58.9406 26.3336 58.2468 25.7536 57.4661C25.1734 56.6856 24.9188 55.8182 24.9753 54.8642C25.0319 53.8089 25.4423 52.8982 26.1639 52.1176C26.8007 51.4527 27.6778 51.0334 28.8239 50.8455V50.2384C28.8239 49.4433 29.4607 48.7928 30.2389 48.7928C31.0172 48.7928 31.6538 49.4433 31.6538 50.2384V50.9178C31.7246 50.9322 31.7811 50.9467 31.8519 50.9611C32.7999 51.1779 33.5781 51.5539 34.2008 52.0742C35.2195 52.9416 34.7809 54.6184 33.4932 54.9364C32.899 55.081 32.2764 54.8786 31.8661 54.416C31.5123 54.0113 30.9888 53.7944 30.3238 53.7511C29.4466 53.6933 28.9938 53.9534 28.9655 54.5172C28.9513 54.7196 29.022 54.9075 29.1494 55.0521C29.2767 55.1967 29.6871 55.3845 30.338 55.5725C31.8378 56.0062 32.9131 56.3676 33.564 56.6856C34.2149 56.9891 34.7384 57.4807 35.1346 58.1311C35.5307 58.7961 35.7147 59.5477 35.6581 60.415C35.5874 61.6293 35.0922 62.6124 34.2008 63.3785C33.5216 63.9423 32.6867 64.3181 31.6679 64.506V65.2867C31.6679 66.0817 31.0313 66.7322 30.2531 66.7322C29.4748 66.7322 28.8381 66.0817 28.8381 65.2867V64.506C28.4419 64.4482 28.1589 64.4048 28.0458 64.376C26.9421 64.1013 26.0507 63.6243 25.3857 62.9304C24.3528 61.8607 24.9895 60.0537 26.4611 59.8802Z" fill="white"/>
<path d="M29.4611 33.875L39.2241 36.5926C39.6628 36.7082 40.1297 36.5926 40.4551 36.2601L43.2001 33.4413C43.8226 32.8052 43.6387 31.7066 42.8322 31.3597C41.9691 30.9838 41.4596 31.1139 39.8608 31.0127C37.5262 30.8537 38.3892 28.9745 36.3376 28.3818C33.4229 27.5579 32.7861 30.5357 30.2958 28.0494C29.6733 27.4422 28.9941 27.1531 28.3857 27.023C27.4235 26.8351 26.6453 27.8325 26.999 28.7577L28.612 33.0799C28.7677 33.4702 29.079 33.7738 29.4611 33.875Z" fill="white"/>
<path d="M26.2643 39.5552L38.4469 43.0679C39.4798 43.3715 40.5551 42.7499 40.8522 41.6946C41.1494 40.6394 40.5409 39.5407 39.508 39.2371L27.3255 35.7245C26.2926 35.4209 25.2172 36.0425 24.9201 37.0978C24.6229 38.153 25.2455 39.2517 26.2643 39.5552Z" fill="white"/>
<path d="M62.1316 47.333L69.1214 58.1457H69.2628L76.2951 47.2028L76.3092 63.9135L81.7851 63.8991L81.7709 41.1026L81.7567 38.3271H75.8282L69.2487 49.1544L62.6693 38.3416L56.7266 38.3561L56.7548 63.9279H62.1458L62.1316 47.333Z" fill="white"/>
<path d="M89.6939 65.2448C88.9723 65.2448 88.0809 64.9123 87.3734 64.4786L85.5482 68.4973C86.9489 69.3357 88.4063 69.8417 90.3731 69.8417C93.6274 69.8417 95.198 68.3383 96.6696 64.3485L104.013 44.2842H98.3675L97.7025 46.4236L94.1934 57.6411L89.892 44.5154L89.8212 44.2986H84.0625L91.5899 63.9437C91.123 64.9556 90.6136 65.2448 89.6939 65.2448Z" fill="white"/>
<path d="M123.667 63.8708V62.1072L108.966 62.1216L108.952 47.1167L108.938 38.2988H107.084V47.1745L107.098 63.8852L123.667 63.8708Z" fill="white"/>
<path d="M134.747 64.2894C138.257 64.2894 140.436 62.8295 142.289 60.7768L141.072 59.6781C139.572 61.3261 137.648 62.6126 134.818 62.6126C131.239 62.6126 127.984 59.9094 127.658 55.2691L142.785 55.2547C142.827 54.9656 142.827 54.85 142.812 54.5175C142.812 48.9955 139.543 44.76 134.436 44.7745C129.498 44.7745 125.791 49.0967 125.791 54.503V54.5753C125.805 60.3864 129.951 64.2894 134.747 64.2894ZM134.379 46.4224C138.567 46.4224 140.675 49.8917 140.93 53.6502L127.658 53.6646C127.97 49.5303 130.772 46.4224 134.379 46.4224Z" fill="white"/>
<path d="M153.493 64.2747C156.961 64.2747 159.21 62.5111 160.469 60.7187V63.8266H162.181L162.168 52.2043C162.168 49.9059 161.516 48.1857 160.299 46.9425C158.969 45.5982 157.003 44.9043 154.541 44.9043C152.036 44.9043 150.07 45.5692 148.074 46.5233L148.726 48.099C150.409 47.2172 152.234 46.5955 154.442 46.5955C158.191 46.5955 160.455 48.5327 160.455 52.2911V53.1006C158.7 52.6235 156.946 52.3055 154.413 52.3055C149.687 52.3055 146.433 54.5027 146.447 58.3769V58.4491C146.433 62.3088 150.084 64.2747 153.493 64.2747ZM148.3 58.319V58.2468C148.3 55.6592 150.437 53.8956 154.3 53.8956C156.918 53.8956 158.955 54.3293 160.484 54.7341V56.8591C160.484 60.2561 157.3 62.5979 153.592 62.5979C150.805 62.5979 148.3 61.0223 148.3 58.319Z" fill="white"/>
<path d="M174.731 64.2603C178.34 64.2603 180.66 62.0919 182.245 59.6489V63.8121H183.999L183.971 37.1416H182.216L182.23 49.1976C180.73 46.8558 178.367 44.7452 174.717 44.7452C170.317 44.7452 165.845 48.4459 165.859 54.5172V54.5895C165.859 60.6463 170.331 64.2603 174.731 64.2603ZM167.741 54.5027V54.4305C167.741 49.4288 170.911 46.4655 174.886 46.451C178.679 46.451 182.33 49.6601 182.33 54.4449V54.5172C182.33 59.273 178.693 62.5256 174.901 62.5256C171.081 62.54 167.756 59.4032 167.741 54.5027Z" fill="white"/>
</g>
<defs>
<linearGradient id="paint0_linear_6056_1920" x1="100" y1="0" x2="100" y2="100" gradientUnits="userSpaceOnUse">
<stop stop-color="#743CFE"/>
<stop offset="1" stop-color="#80F5A7"/>
</linearGradient>
<clipPath id="clip0_6056_1920">
<rect width="168" height="46" fill="white" transform="translate(16 27)"/>
</clipPath>
</defs>
</svg>
