<svg width="200" height="100" viewBox="0 0 200 100" fill="none" xmlns="http://www.w3.org/2000/svg">
<rect width="200" height="100" rx="20" fill="url(#paint0_linear_6056_1819)"/>
<g clip-path="url(#clip0_6056_1819)">
<path fill-rule="evenodd" clip-rule="evenodd" d="M113.149 52.2915C113.149 52.2915 112.893 51.3442 112.893 50.6446V39.6794H117.281V60.7996L103.236 49.1585C102.484 48.5169 102.042 47.8029 102.042 47.8029C102.042 47.8029 102.263 48.5894 102.263 49.2718L102.258 60.324H97.8711V39.2842L111.786 50.6947C112.53 51.3284 113.149 52.2915 113.149 52.2915Z" fill="white"/>
<path fill-rule="evenodd" clip-rule="evenodd" d="M152.87 39.6787C159.819 39.6787 161.6 42.423 161.6 46.3688C161.6 49.229 159.498 52.0273 155.257 52.3606L154.793 52.3817C154.793 52.3817 155.201 52.4554 155.632 52.8691L163.328 60.3233H157.38L146.636 49.4003H151.987C156.779 49.4003 156.916 46.872 156.951 46.2318C157.041 44.5955 156.516 43.282 152.86 43.282H146.746V60.3233H142.184V39.6787H152.87Z" fill="white"/>
<path fill-rule="evenodd" clip-rule="evenodd" d="M119.252 50.2964C119.252 41.6473 126.483 39.376 132.559 39.376C134.993 39.376 137.15 39.5934 139.413 40.0742L139.421 44.4587C138.117 44.0609 135.497 43.1795 132.559 43.1795C126.8 43.1795 124.001 45.4205 124.001 50.2964C124.001 54.2896 127.015 56.835 132.559 56.835C135.497 56.835 138.442 56.1354 139.865 55.6071L139.858 59.8625C137.592 60.342 134.993 60.6385 132.559 60.6385C126.069 60.6385 119.252 57.4792 119.252 50.2964Z" fill="white"/>
<path fill-rule="evenodd" clip-rule="evenodd" d="M69.8897 40.21L74.1675 44.244C74.053 44.2967 73.9188 44.36 73.7596 44.4403C73.5135 44.5681 73.2175 44.7407 72.8635 44.9858C72.1595 45.4745 71.2384 46.2466 70.062 47.5192L61.7038 56.3765C60.2682 57.8929 58.8128 59.0931 57.4575 59.7281L53.1797 55.6941C53.2955 55.6401 53.431 55.5781 53.5863 55.4951C53.8337 55.3713 54.1297 55.1961 54.4824 54.951C55.1864 54.4636 56.1088 53.6915 57.2825 52.4202L65.6421 43.5748C67.0764 42.061 68.5357 40.845 69.8897 40.21Z" fill="white"/>
<path fill-rule="evenodd" clip-rule="evenodd" d="M53.3292 61.6259C55.2214 61.6259 56.9584 61.2491 58.1387 60.6378C58.6768 60.3558 59.4453 59.8697 60.1085 59.3546C60.7691 58.8394 61.7007 58.0384 62.4928 57.1966L70.8629 48.3643C72.9722 46.1378 74.242 45.4514 75.0105 45.18L79.3041 49.251C78.408 50.2101 67.7233 61.6035 67.7233 61.6035C66.993 62.39 66.2272 63.1489 65.7061 63.6297C65.2061 64.0935 64.3468 64.7812 63.9047 65.1066C61.3914 66.9497 58.0347 68.445 53.5148 68.445C43.2748 68.445 34.9902 60.0976 34.9902 50.4881C34.9902 38.565 44.2933 31.6484 52.7687 31.6484C55.3649 31.572 57.4505 32.0067 59.0953 32.568C60.6204 33.087 61.7704 33.7128 62.6033 34.1397C61.6191 34.7734 60.6651 35.6337 59.09 37.3187L57.3742 39.1645C56.9781 39.0117 55.2254 38.4017 52.9726 38.4689C47.5382 38.6296 41.5905 43.0444 41.805 50.2812C42.005 57.049 47.5777 61.6259 53.3292 61.6259Z" fill="white"/>
<path fill-rule="evenodd" clip-rule="evenodd" d="M69.155 39.3643C68.6142 39.6449 67.8445 40.1297 67.1813 40.6461C66.522 41.16 65.5904 41.9623 64.7983 42.8028L56.4308 51.6364C54.3202 53.8629 53.0504 54.548 52.2819 54.8194L47.9883 50.7511C48.8857 49.7906 59.5678 38.3972 59.5678 38.3972C60.2981 37.6107 61.0652 36.8532 61.5863 36.3697C62.0863 35.9072 62.9455 35.2195 63.389 34.8941C65.8983 33.051 69.2603 31.5557 73.7803 31.5557C84.0215 31.5557 92.3008 39.9005 92.3008 49.51C92.3008 61.4357 82.9991 68.351 74.5224 68.351C71.9262 68.4301 69.8406 67.9913 68.1958 67.4301C66.6694 66.9097 65.5154 66.2826 64.6825 65.8544C65.7246 65.1522 66.6155 64.3789 68.2024 62.6833L69.9182 60.8362C70.313 60.9864 72.067 61.599 74.3184 61.5332C79.7542 61.3711 85.7019 56.9563 85.4874 49.7169C85.286 42.9504 79.7108 38.3748 73.9605 38.3748C72.067 38.3748 70.334 38.7503 69.155 39.3643Z" fill="white"/>
</g>
<defs>
<linearGradient id="paint0_linear_6056_1819" x1="100" y1="0" x2="100" y2="100" gradientUnits="userSpaceOnUse">
<stop stop-color="#743CFE"/>
<stop offset="1" stop-color="#80F5A7"/>
</linearGradient>
<clipPath id="clip0_6056_1819">
<rect width="129.524" height="40" fill="white" transform="translate(35 30)"/>
</clipPath>
</defs>
</svg>
