<svg width="200" height="100" viewBox="0 0 200 100" fill="none" xmlns="http://www.w3.org/2000/svg">
<rect width="200" height="100" rx="20" fill="url(#paint0_linear_6056_1851)"/>
<path fill-rule="evenodd" clip-rule="evenodd" d="M59.5723 64.5552H64.7645V29.9551H59.5723V64.5552Z" fill="white"/>
<path fill-rule="evenodd" clip-rule="evenodd" d="M39.3102 42.4477C39.3102 41.6291 38.8101 41.184 38.2367 41.184C37.6661 41.184 37.1535 41.6166 37.1535 42.4477V59.112C37.1535 59.943 37.6661 60.3772 38.2367 60.3772C38.8115 60.3772 39.3102 59.9228 39.3102 59.112V53.6511H44.4969V58.6856C44.4969 62.7692 41.6466 64.8966 38.2132 64.8966C34.929 64.8966 31.9668 62.8377 31.9668 58.6856V42.871C31.9668 38.7282 34.9304 36.6631 38.2132 36.6631C41.5886 36.6631 44.4969 38.7936 44.4969 42.871V47.3794H39.3102V42.4477Z" fill="white"/>
<path fill-rule="evenodd" clip-rule="evenodd" d="M50.9507 43.1982C50.9507 42.3671 51.4619 41.9345 52.0325 41.9345C52.6059 41.9345 53.1074 42.3827 53.1074 43.1982V64.5593H58.2983V41.6731C58.2983 37.9427 56.1526 36.6573 54.5153 36.6573C52.686 36.6573 51.3997 38.1482 51.0446 38.9045H50.9617V29.9561H45.7695V64.5593H50.9507V43.1982Z" fill="white"/>
<path fill-rule="evenodd" clip-rule="evenodd" d="M73.3741 58.6131C73.3741 59.4271 72.8726 59.8784 72.2992 59.8784C71.73 59.8784 71.2174 59.4457 71.2174 58.6131V36.9844H66.0293V59.9515C66.0293 62.9971 67.8931 64.8957 69.8938 64.8957C71.922 64.8957 73.0218 63.2414 73.3327 62.6345H73.4501L73.5441 64.558H78.5636V36.9844H73.3741V58.6131Z" fill="white"/>
<path fill-rule="evenodd" clip-rule="evenodd" d="M85.0195 64.5587H79.8301V36.985H84.9698L85.0209 38.9085H85.1259C85.5059 38.0619 86.7411 36.6582 88.6132 36.6582C90.5502 36.6582 91.7965 38.339 92.0631 39.3287H92.1364C92.5232 38.3234 93.8828 36.6582 95.8475 36.6582C97.8343 36.6582 99.7368 38.1755 99.7368 41.9292V64.5587H94.546V42.9252C94.546 42.0911 94.0375 41.6584 93.4655 41.6584C92.8921 41.6584 92.3864 42.1051 92.3864 42.9252V64.5587H87.1721V42.9346C87.1721 42.102 86.654 41.6678 86.0834 41.6678C85.51 41.6678 85.0195 42.1175 85.0195 42.9346V64.5587Z" fill="white"/>
<path fill-rule="evenodd" clip-rule="evenodd" d="M108.36 58.6237C108.36 59.4392 107.859 59.889 107.283 59.889C106.712 59.889 106.199 59.4532 106.199 58.6237V42.943C106.199 42.1119 106.712 41.6777 107.283 41.6777C107.859 41.6777 108.36 42.129 108.36 42.943V58.6237ZM109.62 36.6573C107.884 36.6557 106.635 38.3131 106.307 38.9169H106.197V29.9561H101.006V64.5577H106.139L106.197 62.6342H106.307C106.567 63.3781 107.681 64.8845 109.584 64.8876C111.783 64.8908 113.569 62.7587 113.569 59.5326V41.6715C113.569 38.5699 111.705 36.6573 109.62 36.6573Z" fill="white"/>
<path fill-rule="evenodd" clip-rule="evenodd" d="M122.185 47.5854V42.4529C122.185 41.6359 121.683 41.1877 121.112 41.1877C120.542 41.1877 120.026 41.6188 120.026 42.4529L120.029 47.5854H122.185ZM120.026 59.125C120.026 59.9561 120.54 60.3918 121.112 60.3918C121.683 60.3918 122.183 59.9421 122.183 59.125V53.6501H127.373V58.6799C127.373 62.8382 124.334 64.8956 121.09 64.8956C117.803 64.8956 114.83 62.8382 114.83 58.6799V42.8809C114.83 38.735 117.799 36.6621 121.085 36.6621C124.459 36.6621 127.373 38.7833 127.373 42.8809V51.7904H120.025L120.026 59.125Z" fill="white"/>
<path fill-rule="evenodd" clip-rule="evenodd" d="M134.925 41.6724C134.358 41.6724 133.84 42.1051 133.84 42.9392V64.5587H128.645V36.985H133.736L133.835 38.9039H133.95C134.439 38.1382 135.694 36.6582 137.428 36.6582C139.438 36.6582 141.191 38.4946 141.191 41.4125V51.7616H135.998V42.7571C135.998 42.0973 135.438 41.6724 134.914 41.6724H134.925Z" fill="white"/>
<path fill-rule="evenodd" clip-rule="evenodd" d="M163.596 47.5854V42.4529C163.596 41.6359 163.098 41.1877 162.524 41.1877C161.955 41.1877 161.438 41.6188 161.438 42.4529L161.441 47.5854H163.596ZM161.438 59.125C161.438 59.9561 161.955 60.3918 162.524 60.3918C163.098 60.3918 163.596 59.9421 163.596 59.125V53.6501H168.786V58.6799C168.786 62.8382 165.742 64.8956 162.502 64.8956C159.217 64.8956 156.246 62.8382 156.246 58.6799V42.8809C156.246 38.735 159.211 36.6621 162.498 36.6621C165.871 36.6621 168.786 38.7833 168.786 42.8809V51.7904H161.438V59.125Z" fill="white"/>
<path fill-rule="evenodd" clip-rule="evenodd" d="M176.323 41.6724C175.747 41.6724 175.235 42.1051 175.235 42.9392V64.5587H170.039V36.985H175.128L175.23 38.9039H175.343C175.834 38.1382 177.088 36.6582 178.825 36.6582C180.835 36.6582 182.59 38.4946 182.59 41.4125V51.7616H177.391V42.7571C177.391 42.0973 176.831 41.6724 176.309 41.6724H176.323Z" fill="white"/>
<mask id="mask0_6056_1851" style="mask-type:luminance" maskUnits="userSpaceOnUse" x="142" y="36" width="13" height="37">
<g opacity="0.7">
<path d="M142.459 36.6572H154.992V72.0896H142.459V36.6572Z" fill="white"/>
</g>
</mask>
<g mask="url(#mask0_6056_1851)">
<path fill-rule="evenodd" clip-rule="evenodd" d="M149.798 66.5777C149.798 67.3932 149.298 67.8414 148.726 67.8414C148.157 67.8414 147.642 67.4056 147.642 66.5777V64.3414H142.459V65.8618C142.459 70.1726 145.098 72.0899 148.708 72.0899C152.291 72.0899 154.992 70.1726 154.992 65.8618V36.984H149.877L149.798 38.9169H149.673C149.402 38.2851 148.187 36.6572 146.252 36.6572C144.378 36.6572 142.459 38.2773 142.459 41.2731V57.7397C142.459 60.8943 144.257 62.7353 146.281 62.7353C148.207 62.7353 149.326 61.2864 149.645 60.7106H149.798V66.5777ZM149.798 56.8947C149.798 57.7102 149.301 58.1584 148.726 58.1584C148.157 58.1584 147.642 57.7273 147.642 56.8947V42.946C147.642 42.1181 148.157 41.687 148.726 41.687C149.301 41.687 149.798 42.1321 149.798 42.946V56.8947Z" fill="white"/>
</g>
<path fill-rule="evenodd" clip-rule="evenodd" d="M22.6359 58.6799C22.6359 59.5125 23.1513 59.9467 23.7219 59.9467C24.2939 59.9467 24.7927 59.4953 24.7927 58.6799V55.4102C24.7927 52.8019 24.2967 51.8526 22.5765 50.0318C21.1106 48.4787 20.3714 47.6787 19.4236 46.6734C18.2119 45.3833 16.8137 43.5842 16.8137 40.2259V36.0816C16.8123 31.5311 20.1738 29.8379 23.715 29.8379C27.2451 29.8379 30.579 31.5684 30.579 36.0489V41.393H24.7927V36.2076C24.7927 35.3906 24.2925 34.9424 23.7191 34.9424C23.1485 34.9424 22.6359 35.3766 22.6359 36.2076V38.6976C22.6359 40.853 23.2356 41.8023 24.8231 43.508C25.46 44.1974 26.9052 45.7801 28.0174 47.0018C30.0056 49.1961 30.6937 51.1741 30.6937 53.896V58.5274C30.6937 63.3455 27.252 65.0356 23.715 65.0356C20.1324 65.0372 16.793 63.3455 16.793 58.7577V52.1218H22.6359V58.6799Z" fill="white"/>
<defs>
<linearGradient id="paint0_linear_6056_1851" x1="100" y1="0" x2="100" y2="100" gradientUnits="userSpaceOnUse">
<stop stop-color="#743CFE"/>
<stop offset="1" stop-color="#80F5A7"/>
</linearGradient>
</defs>
</svg>
