<svg width="200" height="100" viewBox="0 0 200 100" fill="none" xmlns="http://www.w3.org/2000/svg">
<rect width="200" height="100" rx="20" fill="url(#paint0_linear_6056_1793)"/>
<g clip-path="url(#clip0_6056_1793)">
<path fill-rule="evenodd" clip-rule="evenodd" d="M67.5356 42.5778L61.1588 57.8412C61.0686 58.0603 60.8514 58.2034 60.6139 58.2034H56.7789C56.5427 58.2034 56.3242 58.0603 56.234 57.8412L49.8598 42.5778C49.6997 42.1928 49.983 41.7646 50.406 41.7646H53.809C54.0491 41.7646 54.2663 41.9116 54.3578 42.1332L58.3566 52.0576C58.4798 52.3666 58.9155 52.3666 59.0426 52.0576L63.0401 42.1332C63.1303 41.9078 63.3475 41.7646 63.5889 41.7646H66.9932C67.4162 41.7646 67.6994 42.1928 67.5381 42.5778H67.5356Z" fill="white"/>
<path fill-rule="evenodd" clip-rule="evenodd" d="M73.6896 58.2027H70.5139C70.1887 58.2027 69.9258 57.9405 69.9258 57.615V42.3846C69.9258 42.0603 70.1887 41.7969 70.5139 41.7969H73.6896C74.0148 41.7969 74.2815 42.0603 74.2815 42.3846V57.615C74.2815 57.9405 74.0186 58.2027 73.6896 58.2027Z" fill="white"/>
<path fill-rule="evenodd" clip-rule="evenodd" d="M72.1051 34.2275C73.5646 34.2275 74.7472 35.4068 74.7472 36.8622C74.7472 38.3176 73.5646 39.4969 72.1051 39.4969C70.6455 39.4969 69.4629 38.3176 69.4629 36.8622C69.4629 35.4068 70.6455 34.2275 72.1051 34.2275Z" fill="white"/>
<path fill-rule="evenodd" clip-rule="evenodd" d="M84.7093 55.2095C86.3276 55.2095 87.2854 54.4862 87.2854 53.5666C87.2854 52.9725 86.8903 52.3823 85.4714 52.0871L82.1065 51.3981C79.1341 50.7749 77.451 49.0978 77.451 46.7291C77.451 43.5726 80.0271 41.3027 84.1872 41.3027C87.7922 41.3027 90.3785 43.0229 91.1902 45.5448C91.2969 45.8754 91.0797 46.2263 90.7354 46.2921L87.7503 46.8837C87.4683 46.9394 87.1723 46.7899 87.0821 46.5176C86.7252 45.4561 85.6429 44.7227 84.0525 44.7227C82.3021 44.7227 81.8105 45.5765 81.8105 46.3327C81.8105 46.8596 82.0061 47.4182 83.2942 47.7133L87.2219 48.5671C90.127 49.1903 91.5484 51.0016 91.5484 53.2031C91.5484 56.8194 88.6103 58.6953 84.3193 58.6953C80.9048 58.6953 77.7558 57.4451 77.0343 54.4571C76.9543 54.1353 77.1702 53.8136 77.4941 53.7465L80.7537 53.0865C81.0369 53.027 81.3329 53.1853 81.4256 53.4615C81.8512 54.7623 83.1786 55.2095 84.7144 55.2095H84.708H84.7093Z" fill="white"/>
<path fill-rule="evenodd" clip-rule="evenodd" d="M98.084 58.2027H94.9084C94.5832 58.2027 94.3164 57.9405 94.3164 57.615V42.3846C94.3164 42.0603 94.5806 41.7969 94.9084 41.7969H98.084C98.4092 41.7969 98.676 42.0603 98.676 42.3846V57.615C98.676 57.9405 98.413 58.2027 98.084 58.2027Z" fill="white"/>
<path fill-rule="evenodd" clip-rule="evenodd" d="M96.4957 34.2275C97.9552 34.2275 99.1378 35.4068 99.1378 36.8622C99.1378 38.3176 97.9552 39.4969 96.4957 39.4969C95.0361 39.4969 93.8535 38.3176 93.8535 36.8622C93.8535 35.4068 95.0361 34.2275 96.4957 34.2275Z" fill="white"/>
<path fill-rule="evenodd" clip-rule="evenodd" d="M115.02 50.0153C115.02 46.9575 112.643 45.1158 110.367 45.1158C108.093 45.1158 105.611 46.9575 105.611 50.0153C105.611 53.073 107.989 54.9147 110.367 54.9147C112.746 54.9147 115.02 53.073 115.02 50.0153ZM119.244 50.0153C119.244 55.1769 115.184 58.6311 110.364 58.6311C105.545 58.6311 101.385 55.1782 101.385 50.0153C101.385 44.8523 105.445 41.3994 110.364 41.3994C115.283 41.3994 119.244 44.8523 119.244 50.0153Z" fill="white"/>
<path fill-rule="evenodd" clip-rule="evenodd" d="M137.313 58.2027H134.074C133.749 58.2027 133.482 57.9405 133.482 57.6149V49.3803C133.482 47.4221 132.001 45.7121 130.041 45.5803C127.889 45.4372 126.094 47.1384 126.094 49.2512V57.6149C126.094 57.9405 125.83 58.2027 125.501 58.2027H122.262C121.937 58.2027 121.67 57.9405 121.67 57.6149V49.4475C121.67 45.0686 125.079 41.3383 129.474 41.1711C134.088 40.995 137.903 44.6886 137.903 49.2448V57.6086C137.903 57.9341 137.638 58.1963 137.311 58.1963L137.313 58.2027Z" fill="white"/>
<path fill-rule="evenodd" clip-rule="evenodd" d="M144.996 58.2032H141.82C141.495 58.2032 141.229 57.941 141.229 57.6155V37.4539C141.229 37.1284 141.493 36.8662 141.82 36.8662H144.996C145.321 36.8662 145.588 37.1284 145.588 37.4539V57.6155C145.588 57.941 145.324 58.2032 144.996 58.2032Z" fill="white"/>
<path fill-rule="evenodd" clip-rule="evenodd" d="M153.379 58.2027H150.203C149.878 58.2027 149.611 57.9405 149.611 57.615V42.3846C149.611 42.0603 149.876 41.7969 150.203 41.7969H153.379C153.704 41.7969 153.968 42.0603 153.968 42.3846V57.615C153.968 57.9405 153.704 58.2027 153.379 58.2027Z" fill="white"/>
<path fill-rule="evenodd" clip-rule="evenodd" d="M151.791 34.2275C153.25 34.2275 154.433 35.4068 154.433 36.8622C154.433 38.3176 153.25 39.4969 151.791 39.4969C150.331 39.4969 149.148 38.3176 149.148 36.8622C149.148 35.4068 150.331 34.2275 151.791 34.2275Z" fill="white"/>
<path fill-rule="evenodd" clip-rule="evenodd" d="M173.593 58.2027H170.353C170.028 58.2027 169.762 57.9405 169.762 57.6149V49.3803C169.762 47.4221 168.28 45.7121 166.32 45.5803C164.169 45.4372 162.374 47.1384 162.374 49.2512V57.6149C162.374 57.9405 162.109 58.2027 161.784 58.2027H158.545C158.219 58.2027 157.953 57.9405 157.953 57.6149V49.4475C157.953 45.0686 161.361 41.3383 165.758 41.1711C170.371 40.995 174.185 44.6886 174.185 49.2448V57.6086C174.185 57.9341 173.922 58.1963 173.595 58.1963L173.593 58.2027Z" fill="white"/>
<path fill-rule="evenodd" clip-rule="evenodd" d="M192.862 57.1911L185.359 49.9154C185.21 49.7723 185.21 49.5341 185.359 49.3885L192.03 42.8031C192.404 42.4345 192.14 41.7973 191.613 41.7973H187.819C187.659 41.7973 187.5 41.8607 187.393 41.9797L182.504 47.0831C182.275 47.3225 181.869 47.1629 181.869 46.8323V37.4539C181.869 37.1284 181.605 36.8662 181.279 36.8662H178.104C177.778 36.8662 177.512 37.1284 177.512 37.4539V57.6155C177.512 57.9397 177.775 58.2032 178.104 58.2032H181.279C181.605 58.2032 181.869 57.9397 181.869 57.6155V52.4551C181.869 52.1232 182.278 51.9611 182.508 52.203L187.919 58.0119C188.03 58.131 188.188 58.1981 188.352 58.1981H192.45C192.98 58.1981 193.241 57.5547 192.863 57.1861L192.862 57.1911Z" fill="white"/>
<path fill-rule="evenodd" clip-rule="evenodd" d="M15.0807 45.8604C12.8704 40.5759 15.2242 34.5326 20.3371 32.074C17.9185 31.2304 15.1899 31.2393 12.6392 32.2957C7.26726 34.52 4.66193 40.5746 6.68293 45.9567C6.76804 46.1822 6.98907 46.3316 7.23423 46.3316H14.7695C15.0121 46.3316 15.176 46.0859 15.0794 45.863L15.0807 45.8604Z" fill="white"/>
<mask id="mask0_6056_1793" style="mask-type:luminance" maskUnits="userSpaceOnUse" x="20" y="31" width="20" height="19">
<g opacity="0.7">
<path d="M20.334 31H39.8976V49.7867H20.334V31Z" fill="white"/>
</g>
</mask>
<g mask="url(#mask0_6056_1793)">
<path fill-rule="evenodd" clip-rule="evenodd" d="M26.7298 38.083L31.4692 49.4247C31.5606 49.6439 31.7766 49.787 32.0154 49.787H39.5583C39.8009 49.787 39.9647 49.5413 39.8707 49.3183L34.9789 37.6131C32.6924 32.1373 26.3843 29.5482 20.8866 31.8282C20.6986 31.908 20.5169 31.9891 20.334 32.0739C23.1235 33.0467 25.5002 35.1507 26.7247 38.0817L26.7298 38.083Z" fill="white"/>
</g>
<path fill-rule="evenodd" clip-rule="evenodd" d="M21.7903 61.9188L17.0509 50.5771C16.9594 50.358 16.7435 50.2148 16.5047 50.2148H8.96308C8.72045 50.2148 8.55659 50.4606 8.65313 50.6835L13.5462 62.3888C15.8327 67.8608 22.1409 70.4498 27.6386 68.1736C27.8253 68.0938 28.0082 68.0128 28.1899 67.9279C25.4016 66.9551 23.025 64.8512 21.7992 61.9201H21.7928H21.7903V61.9188Z" fill="white"/>
<path fill-rule="evenodd" clip-rule="evenodd" d="M33.4386 54.1372C35.6489 59.4217 33.2951 65.465 28.1797 67.9236C30.5983 68.7698 33.3281 68.7596 35.8775 67.7019C41.2495 65.4777 43.8548 59.423 41.8351 54.0409C41.75 53.8155 41.5277 53.666 41.2838 53.666H33.7486C33.5059 53.666 33.3421 53.9118 33.4386 54.1347V54.1372Z" fill="white"/>
<path fill-rule="evenodd" clip-rule="evenodd" d="M24.2586 53.7C26.3101 53.7 27.9703 52.0432 27.9703 49.9988C27.9703 47.9556 26.3088 46.2988 24.2586 46.2988C22.2084 46.2988 20.5469 47.9556 20.5469 49.9988C20.5469 52.0432 22.2084 53.7 24.2586 53.7Z" fill="white"/>
</g>
<defs>
<linearGradient id="paint0_linear_6056_1793" x1="100" y1="0" x2="100" y2="100" gradientUnits="userSpaceOnUse">
<stop stop-color="#743CFE"/>
<stop offset="1" stop-color="#80F5A7"/>
</linearGradient>
<clipPath id="clip0_6056_1793">
<rect width="188" height="38" fill="white" transform="translate(6 31)"/>
</clipPath>
</defs>
</svg>
